<svg height="512pt" viewBox="-66 0 512 512" width="512pt" xmlns="http://www.w3.org/2000/svg"><path d="m121.34375 83.816406h-47.773438c-4.148437 0-7.507812 3.363282-7.507812 7.507813v206.675781c0 4.148438 3.359375 7.511719 7.507812 7.511719h232.886719c4.148438 0 7.507813-3.363281 7.507813-7.511719v-206.675781c0-4.144531-3.359375-7.507813-7.507813-7.507813h-150.972656c-4.144531 0-7.507813 3.363282-7.507813 7.507813 0 4.148437 3.363282 7.511719 7.507813 7.511719h143.464844v191.65625h-217.871094v-191.65625h40.265625c4.144531 0 7.507812-3.363282 7.507812-7.511719 0-4.144531-3.363281-7.507813-7.507812-7.507813zm0 0"/><path d="m269.707031 125.605469c-2.675781-3.164063-7.414062-3.558594-10.582031-.882813l-69.71875 58.988282-69.632812-59.09375c-3.160157-2.683594-7.898438-2.296876-10.582032.863281-2.683594 3.164062-2.292968 7.902343.867188 10.585937l67.722656 57.476563-67.8125 57.367187c-3.167969 2.679688-3.5625 7.417969-.882812 10.582032 1.484374 1.757812 3.601562 2.660156 5.734374 2.660156 1.714844 0 3.4375-.582032 4.847657-1.777344l69.71875-58.980469 69.632812 59.089844c1.410157 1.199219 3.136719 1.785156 4.851563 1.785156 2.128906 0 4.246094-.898437 5.730468-2.648437 2.683594-3.164063 2.296876-7.902344-.867187-10.585938l-67.722656-57.476562 67.8125-57.367188c3.167969-2.679687 3.5625-7.417968.882812-10.585937zm0 0"/><path d="m304.726562 331.449219-230.320312-1.078125c-.011719 0-.027344 0-.039062 0-4.128907 0-7.488282 3.339844-7.507813 7.472656-.019531 4.148438 3.328125 7.527344 7.472656 7.542969l230.320313 1.082031h.039062c4.128906 0 7.488282-3.339844 7.507813-7.476562.019531-4.144532-3.328125-7.523438-7.472657-7.542969zm0 0"/><path d="m74.40625 370.945312c-.011719 0-.027344 0-.039062 0-4.128907 0-7.484376 3.339844-7.507813 7.472657-.019531 4.148437 3.328125 7.527343 7.476563 7.546875l230.320312 1.078125h.035156c4.128906 0 7.488282-3.339844 7.507813-7.472657.019531-4.148437-3.328125-7.527343-7.472657-7.542968zm0 0"/><path d="m74.332031 426.539062 230.320313 1.078126h.039062c4.128906 0 7.488282-3.339844 7.507813-7.472657.019531-4.148437-3.328125-7.527343-7.472657-7.542969l-230.320312-1.082031c-.011719 0-.027344 0-.039062 0-4.128907 0-7.488282 3.339844-7.507813 7.472657-.019531 4.148437 3.328125 7.527343 7.472656 7.546874zm0 0"/><path d="m371.796875 62.195312c4.144531 0 7.507813-3.363281 7.507813-7.507812v-47.179688c0-4.144531-3.363282-7.507812-7.507813-7.507812h-47.179687c-4.144532 0-7.507813 3.363281-7.507813 7.507812v21.007813h-254.914063v-21.007813c0-4.144531-3.363281-7.507812-7.507812-7.507812h-47.179688c-4.144531 0-7.507812 3.363281-7.507812 7.507812v47.179688c0 4.144531 3.363281 7.507812 7.507812 7.507812h16.679688v387.609376h-16.679688c-4.144531 0-7.507812 3.363281-7.507812 7.507812v47.179688c0 4.144531 3.363281 7.507812 7.507812 7.507812h47.179688c4.144531 0 7.507812-3.363281 7.507812-7.507812v-21.59375h23.488282c4.144531 0 7.507812-3.359376 7.507812-7.507813 0-4.144531-3.363281-7.507813-7.507812-7.507813h-23.488282v-10.570312c0-4.144531-3.363281-7.507812-7.507812-7.507812h-15.480469v-387.609376h15.480469c4.144531 0 7.507812-3.363281 7.507812-7.507812v-11.152344h254.914063v11.152344c0 4.144531 3.363281 7.507812 7.507813 7.507812h16.203124v387.609376h-16.203124c-4.144532 0-7.507813 3.363281-7.507813 7.507812v10.570312h-201.078125c-4.148438 0-7.507812 3.363282-7.507812 7.507813 0 4.148437 3.359374 7.507813 7.507812 7.507813h201.078125v21.59375c0 4.144531 3.363281 7.507812 7.507813 7.507812h47.179687c4.144531 0 7.507813-3.363281 7.507813-7.507812v-47.179688c0-4.144531-3.363282-7.507812-7.507813-7.507812h-15.957031v-387.609376zm-324.621094 434.789063h-32.160156v-32.160156h32.160156zm0-449.808594h-32.160156v-32.160156h32.160156zm317.113281 449.808594h-32.160156v-32.160156h32.160156zm-32.160156-481.96875h32.160156v32.160156h-32.160156zm0 0"/></svg>