<?xml version="1.0"?>
<svg xmlns="http://www.w3.org/2000/svg" viewBox="0 0 64 64" width="512" height="512"><g id="outline"><path d="M41,15.1V19a1.876,1.876,0,0,0,.03.243L43,27.124V58a4,4,0,0,0,8,0V27.124l1.97-7.881A1.876,1.876,0,0,0,53,19V15.1l1.98-9.9a1,1,0,0,0-.425-1.028,14.248,14.248,0,0,0-15.11,0A1,1,0,0,0,39.02,5.2ZM49,58a2,2,0,0,1-4,0V32h4Zm0-28H45V28h4Zm.219-4H44.781l-1.5-6h7.438ZM51,18H43V16h8ZM42.312,4.956l.7,4.209,1.972-.33-.75-4.5A12.4,12.4,0,0,1,46,4.045V8h2V4.046a12.259,12.259,0,0,1,1.763.291l-.749,4.5,1.972.33.7-4.206c.487.2.9.393,1.192.548L51.18,14H42.82l-1.7-8.5C41.414,5.349,41.825,5.154,42.312,4.956Z"/><rect x="46" y="22" width="2" height="2"/><rect x="29" y="22" width="2" height="2"/><rect x="14" y="22" width="2" height="2"/><path d="M23.063,19.351,26,27.182V58a4,4,0,0,0,8,0V27.182l2.937-7.831A1.911,1.911,0,0,0,37,19V7a1,1,0,0,0-.684-.949l-12-4A1,1,0,0,0,23,3V19A1.911,1.911,0,0,0,23.063,19.351ZM32,58a2,2,0,0,1-4,0V32h4Zm0-28H28V28h4Zm.307-4H27.693l-2.25-6h9.114ZM25,4.387l2,.667V12h2V5.721l2,.666V12h2V7.054l2,.667V14H25ZM25,16H35v2H25Z"/><path d="M10,19c0,.023.005.1.008.124L11,27.062V58a4,4,0,0,0,8,0V27.062l.992-7.938c0-.02.008-.1.008-.124V15.159c1.97-5.3-.953-12.256-1.081-12.553A1.015,1.015,0,0,0,17.8,2a.974.974,0,0,0-.8.956c0,.015-.187,1.522-3.448,3.152A7.077,7.077,0,0,0,10,15.176Zm7,39a2,2,0,0,1-4,0V32h4Zm0-28H13V28h4Zm.117-4H12.883l-.75-6h5.734ZM18,18H12V16h6ZM14.447,7.9A11.008,11.008,0,0,0,17.8,5.478c.641,2.172,1.353,5.652.489,8.522H16V11H14v3H11.724A4.978,4.978,0,0,1,14.447,7.9Z"/></g></svg>
